<?xml version="1.0" standalone="no"?>
<!DOCTYPE svg PUBLIC "-//W3C//DTD SVG 20010904//EN"
 "http://www.w3.org/TR/2001/REC-SVG-20010904/DTD/svg10.dtd">
<svg version="1.0" xmlns="http://www.w3.org/2000/svg"
 width="300.000000pt" height="300.000000pt" viewBox="0 0 300.000000 300.000000"
 preserveAspectRatio="xMidYMid meet">
<metadata>
Created by potrace 1.14, written by Peter Selinger 2001-2017
</metadata>
<g transform="translate(0.000000,300.000000) scale(0.100000,-0.100000)"
fill="#000000" stroke="none">
<path d="M146 2990 c5 -5 23 -11 39 -12 17 -1 36 -6 43 -11 7 -6 15 -7 18 -4
4 4 107 -20 164 -39 8 -3 16 -5 18 -4 1 0 15 -6 30 -13 15 -8 41 -17 57 -20
17 -3 38 -9 48 -12 10 -4 17 -3 17 4 0 6 -12 13 -27 16 -16 4 -53 17 -83 30
-92 40 -223 75 -280 75 -36 0 -51 -3 -44 -10z"/>
<path d="M485 2990 c3 -5 13 -10 22 -10 29 0 163 -52 309 -121 22 -10 46 -19
52 -19 7 0 12 -4 12 -10 0 -5 6 -10 14 -10 7 0 39 -14 71 -31 31 -17 64 -28
72 -25 8 3 11 1 8 -4 -3 -6 4 -14 17 -19 13 -5 30 -16 37 -24 7 -9 18 -15 24
-13 7 1 9 1 6 -1 -3 -2 -3 -23 2 -46 14 -70 10 -129 -14 -202 -36 -112 -92
-207 -157 -267 -83 -75 -142 -123 -150 -123 -4 0 -18 -10 -31 -22 -13 -13 -35
-32 -49 -44 -14 -11 -41 -35 -60 -52 -96 -87 -152 -99 -243 -51 -122 64 -147
74 -173 68 -23 -6 -26 -4 -21 10 4 11 1 16 -10 16 -9 0 -27 10 -40 22 -13 12
-23 16 -23 10 0 -7 -22 4 -49 23 -26 19 -54 35 -61 35 -8 0 -22 7 -32 17 -17
16 -18 -18 -18 -1040 l0 -1057 1500 0 1500 0 0 414 c0 322 -3 415 -12 419 -10
4 -10 6 0 6 15 1 17 77 1 86 -6 4 -29 9 -52 11 -23 2 -52 6 -64 9 -27 6 -30
-10 -5 -24 9 -6 12 -11 6 -11 -6 0 -17 6 -24 14 -6 8 -18 12 -26 9 -8 -3 -14
0 -14 6 0 12 -52 16 -63 5 -3 -4 -2 -15 4 -26 9 -17 8 -19 -8 -16 -13 3 -17
11 -15 30 3 29 -9 33 -118 43 -30 3 -77 10 -105 15 -68 14 -185 31 -213 30
-15 0 -21 4 -16 11 5 8 2 9 -10 2 -23 -13 -126 0 -136 18 -6 8 -5 18 0 23 20
20 1 146 -23 155 -18 7 -89 -12 -94 -25 -11 -29 -21 -12 -20 34 1 26 7 52 15
57 30 24 11 127 -40 215 -4 8 -13 27 -19 43 -6 15 -14 27 -19 27 -4 0 -10 9
-13 19 -8 32 33 34 91 6 58 -28 68 -30 77 -15 4 6 3 10 -2 9 -20 -3 -23 2 -13
21 12 22 3 113 -10 105 -4 -2 -13 8 -21 22 -11 21 -11 27 -1 30 6 3 12 9 12
14 0 6 -5 7 -10 4 -6 -3 -10 -1 -10 4 0 6 5 11 10 11 6 0 10 6 10 14 0 9 -9
12 -27 9 -22 -3 -24 -2 -9 5 11 5 15 11 10 15 -6 3 -16 2 -24 -3 -16 -10 -41
12 -43 38 0 11 -8 19 -17 18 -8 -1 -15 6 -15 14 0 8 -8 23 -17 33 -11 10 -18
32 -18 52 0 34 -1 35 -37 35 -28 0 -34 3 -23 10 13 8 12 10 -2 10 -18 0 -22 8
-19 46 2 14 -5 23 -20 27 -13 4 -20 11 -16 20 4 10 -1 14 -16 13 -14 -1 -23 6
-25 18 -5 26 -29 49 -37 36 -10 -16 -28 -12 -21 5 4 11 -1 15 -19 15 -16 0
-28 9 -39 31 -19 39 -12 52 25 47 20 -3 29 0 29 9 0 12 3 11 16 -1 8 -9 20
-16 25 -16 5 0 15 -4 22 -10 7 -5 32 -26 57 -45 68 -54 90 -76 85 -85 -4 -7
16 -36 62 -90 47 -56 64 -81 58 -90 -3 -5 -2 -10 3 -10 6 0 13 -11 16 -24 3
-14 14 -32 23 -41 14 -14 14 -18 2 -26 -12 -7 -12 -9 1 -9 10 0 21 -18 29 -47
8 -27 18 -53 22 -59 5 -6 10 -31 11 -56 2 -25 6 -44 11 -41 4 2 7 -1 7 -7 0
-7 6 -5 15 4 8 8 15 21 15 29 0 24 24 37 61 32 19 -3 120 -14 224 -26 129 -14
195 -25 205 -35 19 -18 25 -201 7 -186 -7 6 -34 12 -62 16 -27 3 -125 15 -218
26 -92 12 -175 20 -185 17 -37 -9 36 -25 208 -46 213 -26 270 -38 270 -57 0
-8 -4 -14 -9 -14 -12 0 -3 -73 12 -97 11 -17 -20 -17 -152 3 -168 25 -342 41
-348 31 -3 -5 0 -14 6 -20 16 -16 14 -27 -6 -28 -26 -2 90 -17 182 -24 44 -3
88 -8 98 -11 11 -4 17 0 17 10 0 18 16 22 22 6 4 -13 90 -21 103 -10 9 7 35 7
55 0 3 -1 8 -2 13 -1 4 0 7 -4 7 -10 0 -6 16 -9 38 -8 21 2 43 0 49 -4 12 -7
29 -8 102 -7 26 0 48 -5 53 -12 6 -10 10 -10 16 -2 4 7 24 10 45 9 25 -2 37 1
37 9 0 12 -48 20 -258 42 l-64 7 4 38 c2 22 -1 40 -7 40 -5 1 4 5 20 9 22 6
25 8 9 9 -27 1 -40 38 -15 43 9 2 81 -4 161 -14 132 -16 162 -17 148 -3 -2 3
-71 14 -152 25 -82 10 -154 25 -162 31 -10 8 -14 37 -14 100 l0 89 28 0 c15
-1 89 -9 165 -19 99 -12 137 -14 137 -6 0 7 -47 16 -132 24 -200 18 -202 19
-209 66 -5 30 -7 33 -9 15 -1 -14 -3 -33 -3 -43 0 -14 -5 -17 -21 -13 -11 3
-109 14 -216 26 -262 28 -244 23 -237 71 3 25 1 39 -6 39 -7 0 -7 4 1 12 20
20 14 37 -10 31 -19 -4 -20 -3 -8 6 13 10 13 12 0 21 -8 5 -11 10 -6 10 6 0 5
5 -2 12 -7 7 -12 25 -12 40 0 18 -5 28 -15 28 -8 0 -20 9 -27 20 -7 11 -21 20
-31 20 -21 0 -97 72 -97 93 0 18 -32 47 -53 47 -9 0 -19 4 -22 10 -9 15 45 24
84 14 43 -11 74 -7 68 9 -2 7 -1 19 3 27 5 8 11 71 14 140 3 69 8 152 10 185
3 33 7 123 11 200 3 77 8 161 11 188 l6 47 -120 0 -119 0 -7 -52 c-4 -29 -10
-100 -12 -158 -5 -97 -9 -148 -14 -160 -1 -3 -2 -9 -1 -14 1 -4 -5 -18 -13
-31 -11 -17 -12 -25 -3 -34 9 -9 8 -17 -2 -33 -10 -16 -10 -23 -2 -26 19 -6
12 -28 -9 -28 -13 0 -19 5 -16 13 3 7 1 13 -5 13 -5 0 -14 -11 -19 -25 -5 -14
-14 -25 -20 -25 -13 0 -13 13 2 28 9 9 7 13 -5 18 -19 7 -23 30 -6 36 7 2 4
10 -7 18 -15 13 -17 13 -12 0 14 -39 -54 -59 -83 -24 -6 8 -19 14 -27 14 -12
0 -13 3 -4 12 20 20 14 29 -15 22 -22 -4 -25 -3 -13 5 19 14 57 14 65 1 3 -5
1 -10 -4 -10 -6 0 -11 -4 -11 -9 0 -15 41 -20 61 -8 23 14 25 29 4 21 -8 -4
-15 -1 -15 5 0 6 5 11 11 11 5 0 7 5 4 10 -4 6 -22 8 -43 4 -35 -6 -36 -5 -17
10 20 15 12 21 -22 17 -6 -1 -15 4 -19 10 -5 9 -2 10 9 6 13 -5 17 -1 17 18 0
26 -21 46 -28 27 -11 -33 -102 -51 -102 -20 0 5 7 8 15 5 8 -4 17 -2 20 4 10
15 -22 22 -45 9 -31 -16 -35 -6 -8 19 l22 22 -23 -4 c-13 -2 -30 -12 -37 -22
-12 -17 -14 -17 -20 -1 -4 11 0 22 12 31 18 13 18 14 2 15 -10 0 -18 -4 -18
-9 0 -16 -60 -18 -81 -3 -18 12 -23 12 -30 1 -6 -11 -11 -11 -21 -1 -9 9 -9
12 5 12 9 0 17 5 17 10 0 6 11 10 24 10 14 0 28 5 31 10 4 6 -6 10 -22 9 -48
-2 -73 -13 -86 -39 -10 -18 -19 -24 -37 -22 -32 5 -36 10 -22 24 9 9 12 9 12
0 0 -15 26 -16 35 -1 4 5 -7 15 -24 22 -29 11 -36 22 -32 57 1 10 -1 11 -6 4
-14 -19 -37 -22 -63 -9 -14 7 -36 18 -50 24 -25 11 -25 11 3 6 18 -4 26 -2 22
4 -3 6 -21 13 -40 17 -19 3 -32 10 -29 15 3 5 17 6 31 3 18 -5 24 -3 19 5 -4
6 -32 11 -62 11 -30 0 -53 4 -50 8 3 5 30 7 59 4 60 -5 82 10 51 33 -25 19
-34 18 -34 0 0 -8 -7 -15 -15 -15 -8 0 -12 6 -9 14 3 8 1 17 -5 21 -6 3 -14
-1 -17 -9 -3 -9 -12 -16 -20 -16 -18 0 -18 8 1 27 8 8 13 18 10 23 -3 4 -111
9 -241 9 -161 1 -234 -2 -229 -9z m412 -86 c-3 -3 -12 -4 -19 -1 -8 3 -5 6 6
6 11 1 17 -2 13 -5z m248 -154 c-3 -5 -10 -10 -16 -10 -5 0 -9 5 -9 10 0 6 7
10 16 10 8 0 12 -4 9 -10z m175 -55 c16 -19 1 -19 -24 0 -16 12 -17 15 -4 15
8 0 21 -7 28 -15z m98 -46 c4 -11 2 -11 -8 -2 -9 8 -19 9 -32 2 -11 -6 -18 -6
-18 0 0 10 27 20 44 17 6 -1 12 -9 14 -17z m131 -29 c-23 -13 -56 -16 -57 -5
-1 6 7 10 17 10 11 0 22 3 26 7 5 4 12 5 18 1 6 -3 4 -9 -4 -13z m-129 -20 c0
-5 -5 -10 -11 -10 -5 0 -7 5 -4 10 3 6 8 10 11 10 2 0 4 -4 4 -10z m130 -14
c0 -2 -7 -9 -15 -16 -12 -10 -15 -10 -15 4 0 9 7 16 15 16 8 0 15 -2 15 -4z
m-43 -70 c-16 -18 -31 -8 -16 10 6 7 15 11 20 8 5 -3 3 -11 -4 -18z m53 -6 c0
-5 -4 -10 -10 -10 -5 0 -10 5 -10 10 0 6 5 10 10 10 6 0 10 -4 10 -10z m160
-34 c0 -2 -9 -6 -20 -9 -11 -3 -18 -1 -14 4 5 9 34 13 34 5z m-120 -16 c0 -5
-5 -10 -11 -10 -5 0 -7 5 -4 10 3 6 8 10 11 10 2 0 4 -4 4 -10z m180 -20 c0
-5 -8 -10 -17 -10 -15 0 -16 2 -3 10 19 12 20 12 20 0z m-187 -140 c-5 -20
-23 -28 -23 -10 0 6 -5 10 -11 10 -5 0 -8 -4 -4 -9 3 -5 0 -13 -6 -17 -6 -3
-15 0 -20 7 -5 8 -9 9 -9 4 0 -6 -9 -16 -20 -23 -18 -11 -20 -10 -20 13 0 30
26 43 82 44 31 1 35 -2 31 -19z m-123 -20 c0 -5 -7 -10 -16 -10 -8 0 -12 5 -9
10 3 6 10 10 16 10 5 0 9 -4 9 -10z m-56 -35 c-10 -8 -23 -14 -29 -14 -5 0 -1
6 9 14 11 8 24 15 30 15 5 0 1 -7 -10 -15z m-280 -20 c14 0 28 5 30 12 8 19
36 16 37 -4 1 -17 2 -17 6 0 6 23 17 22 50 -8 24 -21 26 -26 13 -35 -8 -5 -27
-10 -41 -10 -15 0 -32 -7 -39 -15 -14 -17 -40 -20 -40 -4 0 6 -7 3 -16 -5 -8
-9 -26 -19 -40 -22 -13 -3 -24 -9 -24 -13 0 -4 -9 -7 -19 -7 -11 0 -17 4 -14
9 3 4 -5 17 -17 27 -20 17 -20 21 -8 46 12 26 34 31 32 8 -1 -6 7 -9 17 -7 11
3 19 13 19 22 0 23 12 34 21 19 4 -6 19 -12 33 -13z m414 0 c-3 -3 -9 2 -12
12 -6 14 -5 15 5 6 7 -7 10 -15 7 -18z m-178 -80 c0 -14 -4 -25 -10 -25 -11 0
-14 33 -3 43 11 11 13 8 13 -18z m-362 -14 c3 -8 -1 -12 -9 -9 -7 2 -15 10
-17 17 -3 8 1 12 9 9 7 -2 15 -10 17 -17z m322 -1 c0 -5 -7 -10 -15 -10 -8 0
-15 5 -15 10 0 6 7 10 15 10 8 0 15 -4 15 -10z m-136 -19 c49 -12 59 -22 62
-65 3 -29 -1 -36 -19 -42 -12 -4 -25 -12 -29 -17 -5 -8 -13 -6 -25 4 -20 18
-66 32 -57 18 3 -5 -1 -9 -9 -9 -15 0 -49 34 -66 67 -13 26 -15 44 -2 24 8
-12 12 -12 25 -2 8 7 20 10 26 6 5 -3 10 1 10 9 0 18 25 20 84 7z m158 -53
c-9 -9 -15 -9 -24 0 -9 9 -7 12 12 12 19 0 21 -3 12 -12z m35 -24 c-3 -3 -12
-4 -19 -1 -8 3 -5 6 6 6 11 1 17 -2 13 -5z m133 -9 c11 -13 8 -14 -21 -9 -47
9 -60 24 -22 24 17 0 36 -7 43 -15z m-765 -34 c3 -5 1 -12 -5 -16 -5 -3 -10 1
-10 9 0 18 6 21 15 7z m425 -101 c0 -18 -19 -11 -30 11 -11 19 -10 20 9 9 12
-6 21 -15 21 -20z m415 -20 c-3 -5 -12 -10 -18 -10 -7 0 -6 4 3 10 19 12 23
12 15 0z m228 -354 c8 -21 19 -41 25 -45 6 -3 12 -24 14 -46 2 -22 8 -47 13
-55 5 -8 5 -15 -1 -17 -5 -2 -8 -33 -7 -70 1 -43 -4 -76 -13 -90 -32 -51 -54
-95 -54 -109 0 -50 -76 -92 -109 -59 -13 13 -13 15 -1 10 12 -4 15 4 15 39 -1
51 -41 122 -68 120 -9 -1 -15 3 -14 8 2 8 -12 20 -41 35 -2 1 -1 15 3 32 4 17
11 29 15 26 10 -6 16 -1 98 91 72 79 86 111 80 182 -3 33 0 65 6 75 9 15 12 9
18 -35 4 -29 13 -70 21 -92z m247 125 c0 -5 -7 -14 -15 -21 -16 -14 -18 -10
-9 14 6 17 24 22 24 7z m-647 -191 c3 -12 14 -20 26 -20 21 0 81 -71 81 -96 0
-7 7 -17 16 -22 15 -8 15 -11 -1 -35 -16 -26 -16 -27 12 -51 15 -13 25 -28 21
-32 -4 -4 -17 5 -29 19 -11 15 -27 27 -34 27 -8 0 -18 8 -24 17 -7 14 -12 15
-24 4 -13 -10 -18 -8 -32 13 -10 14 -23 26 -31 26 -17 0 -47 45 -52 76 -1 13
6 32 17 43 12 12 18 27 15 36 -4 10 0 15 14 15 11 0 22 -8 25 -20z m174 -282
c-3 -8 -6 -5 -6 6 -1 11 2 17 5 13 3 -3 4 -12 1 -19z m682 -202 c19 -1 31 -6
31 -15 0 -8 -6 -11 -15 -7 -8 3 -15 1 -15 -4 0 -6 5 -10 10 -10 6 0 10 -12 10
-26 0 -22 -3 -24 -22 -19 -13 3 -18 3 -12 -2 19 -14 27 -53 11 -53 -8 0 -19 6
-25 13 -10 12 -12 18 -12 35 0 5 -10 8 -21 8 -12 -1 -23 5 -25 12 -1 7 0 8 3
2 12 -25 25 -8 19 25 -5 26 -4 35 6 33 8 -2 12 5 10 17 -2 15 -1 17 7 6 5 -8
23 -14 40 -15z m-139 10 c0 -3 -4 -8 -10 -11 -5 -3 -10 -1 -10 4 0 6 5 11 10
11 6 0 10 -2 10 -4z m260 -6 c0 -5 -4 -10 -10 -10 -5 0 -10 5 -10 10 0 6 5 10
10 10 6 0 10 -4 10 -10z m124 -22 c-4 -6 4 -5 16 2 22 12 44 5 23 -8 -8 -5 -9
-12 -2 -22 8 -13 10 -13 18 -1 5 8 7 21 3 30 -5 14 -2 13 15 -1 21 -19 58 -25
48 -8 -4 6 6 10 24 10 16 0 33 -5 37 -12 5 -8 0 -9 -16 -5 -14 3 -28 0 -37 -9
-8 -8 -19 -12 -24 -9 -5 4 -9 1 -9 -5 0 -7 8 -9 20 -5 15 5 20 2 20 -12 0 -15
2 -15 9 -3 6 8 7 18 5 22 -3 4 4 8 15 8 18 0 20 -6 18 -40 -2 -39 -3 -40 -31
-34 -26 6 -28 4 -23 -15 6 -25 -10 -40 -19 -17 -9 23 -73 19 -71 -4 1 -15 5
-16 24 -7 32 14 48 -2 29 -29 -14 -18 -15 -18 -9 6 5 21 3 23 -8 13 -27 -26
-47 -8 -72 67 -4 12 -6 11 -6 -2 -1 -11 -9 -18 -21 -18 -11 0 -20 -7 -20 -15
0 -8 -4 -15 -10 -15 -5 0 -10 8 -10 18 0 15 -6 18 -30 14 -16 -2 -30 0 -30 5
0 5 -16 10 -35 11 -32 1 -35 -1 -35 -25 0 -20 -3 -24 -11 -16 -9 9 -9 20 1 43
8 20 10 34 3 38 -5 4 -6 18 -2 32 4 14 7 19 8 12 1 -9 11 -11 37 -6 25 5 39 3
44 -6 11 -18 51 -20 57 -3 3 7 9 10 15 7 5 -3 12 3 15 14 3 13 11 18 19 15 8
-3 11 -10 8 -15z m-374 -6 c0 -4 -5 -13 -10 -18 -7 -7 -3 -17 10 -32 12 -12
15 -22 9 -22 -17 0 -38 31 -39 58 0 13 6 22 15 22 8 0 15 -4 15 -8z m640 -12
c0 -5 -2 -10 -4 -10 -3 0 -8 5 -11 10 -3 6 -1 10 4 10 6 0 11 -4 11 -10z
m-623 -22 c-3 -8 -6 -5 -6 6 -1 11 2 17 5 13 3 -3 4 -12 1 -19z m673 2 c0 -5
-5 -10 -11 -10 -5 0 -7 5 -4 10 3 6 8 10 11 10 2 0 4 -4 4 -10z m-40 -10 c0
-5 -2 -10 -4 -10 -3 0 -8 5 -11 10 -3 6 -1 10 4 10 6 0 11 -4 11 -10z m-45
-20 c11 -5 14 -9 7 -9 -19 -1 -11 -43 13 -63 24 -20 19 -28 -16 -21 -22 4 -25
10 -25 43 1 26 -3 36 -12 33 -8 -4 -10 0 -6 11 7 18 10 18 39 6z m164 -6 c-12
-15 -11 -16 11 -9 23 6 24 6 10 -9 -13 -14 -20 -14 -43 -4 -31 15 -37 32 -7
23 11 -4 20 -2 20 4 0 6 5 11 11 11 8 0 7 -6 -2 -16z m-114 -4 c3 -5 1 -10 -4
-10 -6 0 -11 5 -11 10 0 6 2 10 4 10 3 0 8 -4 11 -10z m-440 -30 c3 -5 2 -10
-4 -10 -5 0 -13 5 -16 10 -3 6 -2 10 4 10 5 0 13 -4 16 -10z m530 -8 c-3 -3
-11 0 -18 7 -9 10 -8 11 6 5 10 -3 15 -9 12 -12z m-843 -24 c-6 -6 -16 -7 -22
-3 -9 6 -9 9 1 16 17 10 34 0 21 -13z m-152 -14 c0 -14 -4 -23 -9 -20 -5 3 -7
15 -4 26 7 28 13 25 13 -6z m476 -1 c-10 -10 -19 5 -10 18 6 11 8 11 12 0 2
-7 1 -15 -2 -18z m29 17 c3 -5 1 -10 -4 -10 -6 0 -11 5 -11 10 0 6 2 10 4 10
3 0 8 -4 11 -10z m275 -20 c0 -5 -5 -10 -11 -10 -5 0 -7 5 -4 10 3 6 8 10 11
10 2 0 4 -4 4 -10z m-153 -57 c-3 -2 -16 7 -30 21 -14 14 -22 27 -19 30 3 3
16 -6 29 -20 13 -15 22 -28 20 -31z m108 -3 c-10 -11 -24 -16 -33 -12 -14 5
-12 7 8 13 14 4 21 7 17 8 -5 1 -5 6 -2 11 4 6 11 8 16 4 6 -4 4 -13 -6 -24z
m-318 14 c-3 -3 -12 -4 -19 -1 -8 3 -5 6 6 6 11 1 17 -2 13 -5z m43 -54 c0 -5
-4 -10 -10 -10 -5 0 -10 5 -10 10 0 6 5 10 10 10 6 0 10 -4 10 -10z m-30 -20
c0 -5 -2 -10 -4 -10 -3 0 -8 5 -11 10 -3 6 -1 10 4 10 6 0 11 -4 11 -10z
m-240 -10 c0 -5 -7 -10 -16 -10 -8 0 -12 5 -9 10 3 6 10 10 16 10 5 0 9 -4 9
-10z m-80 -100 c0 -5 -2 -10 -4 -10 -3 0 -8 5 -11 10 -3 6 -1 10 4 10 6 0 11
-4 11 -10z m-160 -150 c0 -5 -6 -10 -14 -10 -8 0 -18 5 -21 10 -3 6 3 10 14
10 12 0 21 -4 21 -10z m-1510 -30 c0 -5 -4 -10 -10 -10 -5 0 -10 5 -10 10 0 6
5 10 10 10 6 0 10 -4 10 -10z m1125 -30 c3 -5 1 -10 -4 -10 -6 0 -11 5 -11 10
0 6 2 10 4 10 3 0 8 -4 11 -10z m5 -190 c0 -5 -4 -10 -10 -10 -5 0 -10 5 -10
10 0 6 5 10 10 10 6 0 10 -4 10 -10z"/>
<path d="M2540 878 c0 -4 4 -8 9 -8 6 0 12 4 15 8 3 5 -1 9 -9 9 -8 0 -15 -4
-15 -9z"/>
<path d="M2611 873 c-18 -20 -11 -24 18 -9 17 9 19 14 10 18 -8 3 -20 -1 -28
-9z"/>
<path d="M988 2993 c12 -2 30 -2 40 0 9 3 -1 5 -23 4 -22 0 -30 -2 -17 -4z"/>
<path d="M2526 2968 c-3 -18 -7 -51 -8 -73 l-3 -40 -55 2 c-30 2 -105 5 -166
9 l-112 6 -5 -29 c-3 -15 -9 -73 -12 -129 l-7 -101 44 -7 c23 -4 54 -7 67 -7
13 1 29 -3 35 -8 6 -5 45 -6 91 -1 44 4 81 7 82 7 6 -7 6 -41 -1 -92 -12 -96
-68 -220 -121 -270 -26 -24 -75 -55 -89 -55 -8 0 -17 -4 -21 -9 -3 -6 -27 -13
-53 -16 -51 -7 -102 -26 -102 -37 0 -13 93 -21 109 -10 9 6 44 24 78 41 123
59 193 160 229 331 10 47 22 88 27 91 5 3 8 10 8 15 -1 5 4 9 9 8 6 -1 23 -2
40 -2 22 -2 28 -6 24 -17 -7 -17 21 -21 31 -5 3 6 17 10 31 10 13 0 24 -4 24
-10 0 -5 7 -10 16 -10 9 0 12 5 8 12 -5 8 -2 9 12 3 17 -7 32 -7 84 -3 8 1 31
0 50 -1 28 -1 32 -4 20 -12 -12 -9 -11 -10 7 -6 13 3 26 1 29 -4 3 -5 21 -9
40 -9 l34 0 0 139 0 140 -42 5 c-24 3 -125 11 -225 17 l-183 12 0 74 c0 74
-15 99 -24 41z"/>
<path d="M1108 2963 c7 -3 16 -2 19 1 4 3 -2 6 -13 5 -11 0 -14 -3 -6 -6z"/>
<path d="M2980 2912 c0 -10 -5 -23 -12 -30 -6 -6 -9 -15 -5 -19 9 -9 36 27 37
50 0 9 -4 17 -10 17 -5 0 -10 -8 -10 -18z"/>
<path d="M1094 2865 c1 -39 18 -52 37 -28 11 12 10 17 -4 24 -9 6 -17 17 -17
24 0 8 -4 15 -8 15 -5 0 -8 -16 -8 -35z"/>
<path d="M1375 2880 c3 -5 11 -10 16 -10 6 0 7 5 4 10 -3 6 -11 10 -16 10 -6
0 -7 -4 -4 -10z"/>
<path d="M1430 2880 c-9 -6 -10 -10 -3 -10 6 0 15 5 18 10 8 12 4 12 -15 0z"/>
<path d="M2735 2870 c27 -12 35 -12 35 0 0 6 -12 10 -27 9 -25 0 -26 -1 -8 -9z"/>
<path d="M2780 2870 c0 -5 24 -10 54 -10 30 0 58 5 61 10 4 6 -17 10 -54 10
-34 0 -61 -4 -61 -10z"/>
<path d="M0 2804 c0 -13 7 -25 18 -28 9 -3 51 -15 92 -26 41 -12 112 -32 158
-45 45 -13 82 -20 82 -15 0 8 -142 70 -160 70 -6 0 -18 4 -28 10 -9 5 -50 21
-89 34 l-73 23 0 -23z"/>
<path d="M1365 2760 c-3 -5 3 -10 14 -10 12 0 21 5 21 10 0 6 -6 10 -14 10 -8
0 -18 -4 -21 -10z"/>
<path d="M1466 2747 c4 -10 16 -22 28 -29 18 -9 19 -8 6 3 -8 8 -20 21 -27 29
-11 13 -12 13 -7 -3z"/>
<path d="M1690 2732 c0 -4 9 -8 20 -8 11 0 20 4 20 8 0 4 -9 8 -20 8 -11 0
-20 -4 -20 -8z"/>
<path d="M1550 2720 c0 -5 5 -10 10 -10 6 0 10 5 10 10 0 6 -4 10 -10 10 -5 0
-10 -4 -10 -10z"/>
<path d="M1605 2720 c-3 -6 1 -7 9 -4 18 7 21 14 7 14 -6 0 -13 -4 -16 -10z"/>
<path d="M1673 2633 c-13 -2 -23 -9 -23 -15 0 -6 10 -8 25 -4 20 5 23 3 18
-10 -4 -11 -2 -15 6 -13 7 3 12 8 12 12 -1 4 -1 14 -1 22 0 8 -3 14 -7 14 -5
-1 -18 -4 -30 -6z"/>
<path d="M106 2552 c-6 -11 36 -32 64 -32 24 0 34 15 17 27 -17 13 -74 16 -81
5z"/>
<path d="M1775 2540 c-3 -5 -2 -10 4 -10 5 0 13 5 16 10 3 6 2 10 -4 10 -5 0
-13 -4 -16 -10z"/>
<path d="M1735 2509 c-4 -6 -5 -13 -2 -16 7 -7 27 6 27 18 0 12 -17 12 -25 -2z"/>
<path d="M1938 1948 c18 -17 35 -29 39 -25 3 4 1 7 -6 7 -7 0 -10 4 -7 9 6 10
-10 25 -38 35 -13 4 -9 -3 12 -26z"/>
<path d="M2248 1903 c7 -3 16 -2 19 1 4 3 -2 6 -13 5 -11 0 -14 -3 -6 -6z"/>
<path d="M1988 1893 c7 -3 16 -2 19 1 4 3 -2 6 -13 5 -11 0 -14 -3 -6 -6z"/>
<path d="M2433 1883 c9 -2 23 -2 30 0 6 3 -1 5 -18 5 -16 0 -22 -2 -12 -5z"/>
<path d="M2693 1863 c9 -2 23 -2 30 0 6 3 -1 5 -18 5 -16 0 -22 -2 -12 -5z"/>
<path d="M2768 1853 c12 -2 32 -2 45 0 12 2 2 4 -23 4 -25 0 -35 -2 -22 -4z"/>
<path d="M2871 1846 c2 -2 33 -6 69 -9 39 -3 55 -2 40 3 -25 8 -117 13 -109 6z"/>
<path d="M2186 1455 c4 -8 7 -15 8 -15 0 -1 28 -3 61 -5 l60 -4 -52 10 c-29 6
-53 15 -53 20 0 5 -7 9 -15 9 -9 0 -12 -6 -9 -15z"/>
<path d="M2408 1463 c6 -2 18 -2 25 0 6 3 1 5 -13 5 -14 0 -19 -2 -12 -5z"/>
<path d="M2373 1423 c9 -2 23 -2 30 0 6 3 -1 5 -18 5 -16 0 -22 -2 -12 -5z"/>
<path d="M2708 1423 c7 -3 16 -2 19 1 4 3 -2 6 -13 5 -11 0 -14 -3 -6 -6z"/>
<path d="M2250 1409 c25 -4 61 -7 80 -7 29 1 26 2 -15 8 -69 11 -126 10 -65
-1z"/>
<path d="M2428 1413 c6 -2 18 -2 25 0 6 3 1 5 -13 5 -14 0 -19 -2 -12 -5z"/>
<path d="M2523 1403 c9 -2 23 -2 30 0 6 3 -1 5 -18 5 -16 0 -22 -2 -12 -5z"/>
<path d="M2873 1403 c9 -2 23 -2 30 0 6 3 -1 5 -18 5 -16 0 -22 -2 -12 -5z"/>
<path d="M2398 1393 c7 -3 16 -2 19 1 4 3 -2 6 -13 5 -11 0 -14 -3 -6 -6z"/>
<path d="M2953 1393 c9 -2 25 -2 35 0 9 3 1 5 -18 5 -19 0 -27 -2 -17 -5z"/>
<path d="M2458 1383 c7 -3 16 -2 19 1 4 3 -2 6 -13 5 -11 0 -14 -3 -6 -6z"/>
<path d="M2498 1383 c7 -3 16 -2 19 1 4 3 -2 6 -13 5 -11 0 -14 -3 -6 -6z"/>
<path d="M2838 1383 c6 -2 18 -2 25 0 6 3 1 5 -13 5 -14 0 -19 -2 -12 -5z"/>
<path d="M2553 1373 c9 -2 23 -2 30 0 6 3 -1 5 -18 5 -16 0 -22 -2 -12 -5z"/>
<path d="M2733 1373 c9 -2 25 -2 35 0 9 3 1 5 -18 5 -19 0 -27 -2 -17 -5z"/>
<path d="M2933 1373 c9 -2 25 -2 35 0 9 3 1 5 -18 5 -19 0 -27 -2 -17 -5z"/>
<path d="M2813 1363 c9 -2 23 -2 30 0 6 3 -1 5 -18 5 -16 0 -22 -2 -12 -5z"/>
<path d="M2703 1353 c9 -2 25 -2 35 0 9 3 1 5 -18 5 -19 0 -27 -2 -17 -5z"/>
<path d="M2898 1353 c12 -2 30 -2 40 0 9 3 -1 5 -23 4 -22 0 -30 -2 -17 -4z"/>
<path d="M2808 1343 c7 -3 16 -2 19 1 4 3 -2 6 -13 5 -11 0 -14 -3 -6 -6z"/>
<path d="M2873 1333 c9 -2 25 -2 35 0 9 3 1 5 -18 5 -19 0 -27 -2 -17 -5z"/>
<path d="M2953 1323 c9 -2 25 -2 35 0 9 3 1 5 -18 5 -19 0 -27 -2 -17 -5z"/>
<path d="M2931 1226 c-9 -11 -8 -18 4 -30 21 -20 24 -20 20 2 -1 9 7 22 19 29
20 12 20 12 -5 13 -15 0 -32 -6 -38 -14z"/>
<path d="M2978 1213 c6 -2 10 -9 6 -14 -3 -5 0 -9 5 -9 6 0 11 7 11 15 0 8 -8
15 -17 14 -11 0 -13 -3 -5 -6z"/>
<path d="M2358 1023 c7 -3 16 -2 19 1 4 3 -2 6 -13 5 -11 0 -14 -3 -6 -6z"/>
</g>
</svg>
